<svg width="70" height="77" viewBox="0 0 70 77" fill="none" xmlns="http://www.w3.org/2000/svg">
<path d="M34.9671 1.00706C34.5173 1.06312 34.1852 1.45436 34.2029 1.90714V5.39968V5.42711C18.3416 5.7897 5.43507 16.0295 5.37891 28.8922C5.37769 28.919 5.37769 28.9464 5.37891 28.9739C5.37647 29.0098 5.37647 29.0464 5.37891 29.083C5.40085 31.1458 6.04073 33.0209 7.09858 34.4304C8.17479 35.865 9.73121 36.8315 11.493 36.8315C13.2548 36.8315 14.8113 35.865 15.8874 34.4304C16.2409 33.9594 16.5358 33.4401 16.7881 32.8752C17.9832 35.225 20.2222 36.8314 22.8475 36.8314C25.4983 36.8314 27.7757 35.2074 28.9616 32.8203C30.0164 34.9428 31.9288 36.4628 34.2025 36.7765V36.7771C34.2019 36.7948 34.2019 36.8131 34.2025 36.8313V60.4057H28.9616V54.2939L28.9622 54.2933C28.9616 53.8113 28.5709 53.42 28.0883 53.42H14.9868C14.9417 53.417 14.8959 53.417 14.8502 53.42L12.1755 50.2273V50.2279C12.0042 50.0311 11.7538 49.9208 11.493 49.9275H1.88508C1.83023 49.9226 1.77599 49.9226 1.72114 49.9275C1.41462 49.9823 1.15987 50.1956 1.05324 50.4881C0.945989 50.78 1.00327 51.1073 1.20255 51.3468L15.8599 69.4359V75.2478C15.8569 75.4812 15.9477 75.7067 16.1116 75.873C16.2755 76.0394 16.4998 76.1332 16.7338 76.1332C16.9672 76.1332 17.1915 76.0394 17.3554 75.873C17.52 75.7067 17.6101 75.4812 17.6071 75.2478V70.0094H34.2032V75.2478C34.2001 75.4812 34.2903 75.7067 34.4549 75.873C34.6188 76.0394 34.8431 76.1332 35.0765 76.1332C35.3105 76.1332 35.5347 76.0394 35.6987 75.873C35.8632 75.7067 35.9534 75.4812 35.9504 75.2478V70.0094H67.3937V75.2478C67.39 75.4812 67.4808 75.7067 67.6448 75.873C67.8093 76.0394 68.033 76.1332 68.267 76.1332C68.501 76.1332 68.7246 76.0394 68.8892 75.873C69.0531 75.7067 69.1439 75.4812 69.1403 75.2478V69.2994C69.1458 69.2451 69.1458 69.1903 69.1403 69.136V68.2627C69.1458 68.2079 69.1458 68.1537 69.1403 68.0988V64.7702C69.1397 64.404 68.9111 64.0774 68.5674 63.9518L59.3691 60.4593C59.2642 60.4203 59.1527 60.402 59.0412 60.405H35.9489V36.8307C35.9496 36.8131 35.9496 36.7948 35.9489 36.7765C38.2226 36.4627 40.1349 34.9428 41.1899 32.8203C42.3758 35.2074 44.6531 36.8314 47.304 36.8314C49.9299 36.8314 52.1683 35.225 53.3633 32.8752C53.6162 33.4401 53.9105 33.9593 54.264 34.4304C55.3402 35.865 56.8966 36.8315 58.6584 36.8315C60.4202 36.8315 61.9767 35.865 63.0528 34.4304C64.0967 33.0391 64.7347 31.1958 64.7725 29.1645V29.1371C64.7774 29.0829 64.7774 29.028 64.7725 28.9732V28.8915C64.7164 16.0289 51.8098 5.78992 35.9485 5.42642V5.42703V5.3996V1.90706C35.9583 1.65051 35.8553 1.40247 35.6658 1.2294C35.4763 1.05571 35.2203 0.974668 34.9656 1.00696L34.9671 1.00706ZM35.0761 7.14627C35.482 7.14627 36.0597 7.48327 36.7136 8.51073C37.3675 9.53818 38.0037 11.1488 38.5425 13.1488C39.5663 16.9496 40.1982 22.2631 40.2621 28.1006H29.8901C29.9541 22.2631 30.5861 16.9496 31.6098 13.1488C32.1485 11.1488 32.7847 9.53757 33.4387 8.51073C34.0926 7.48327 34.6703 7.14627 35.0761 7.14627ZM32.0193 7.50093C32.0011 7.52897 31.9828 7.55395 31.9645 7.5826C31.1558 8.85259 30.4848 10.5772 29.9175 12.6851C28.8346 16.7048 28.1496 22.1175 28.0886 28.1012H17.6892C18.0231 17.6797 24.1337 9.25859 32.0192 7.50194L32.0193 7.50093ZM38.1334 7.50093C46.0191 9.25852 52.1296 17.6792 52.4635 28.1002H42.064C42.0031 22.117 41.3181 16.7037 40.2352 12.6841C39.6672 10.5762 38.9968 8.85227 38.1882 7.58159C38.1699 7.55295 38.1522 7.52796 38.1333 7.49993L38.1334 7.50093ZM25.6321 8.42845C19.9682 12.3536 16.1387 19.7025 15.8877 28.101H7.23534C7.70276 19.0958 15.168 11.3801 25.6318 8.42845H25.6321ZM44.5199 8.42845C54.984 11.3804 62.4499 19.0955 62.9163 28.101H54.264C54.0129 19.7028 50.1835 12.3536 44.5196 8.42845H44.5199ZM7.26218 29.8467H15.7237C15.5726 31.2264 15.1698 32.4672 14.4952 33.3666C13.6749 34.4598 12.6249 35.0858 11.4926 35.0858C10.3604 35.0858 9.3104 34.4605 8.49011 33.3666C7.81551 32.4677 7.41269 31.2263 7.26155 29.8467H7.26218ZM17.7434 29.8467H27.9516C27.5701 32.8365 25.4274 35.0852 22.8472 35.0852C20.267 35.0852 18.1248 32.8365 17.7428 29.8467H17.7434ZM29.9717 29.8467H40.1799C39.7984 32.8365 37.6557 35.0852 35.0755 35.0852C32.4953 35.0852 30.3532 32.8365 29.9711 29.8467H29.9717ZM42.2001 29.8467H52.4083C52.0268 32.8365 49.8841 35.0852 47.3039 35.0852C44.7237 35.0852 42.5815 32.8365 42.1995 29.8467H42.2001ZM54.4284 29.8467H62.89C62.7388 31.2264 62.336 32.4672 61.6614 33.3666C60.8411 34.4598 59.7912 35.0858 58.6589 35.0858C57.5266 35.0858 56.4766 34.4605 55.6564 33.3666C54.9817 32.4677 54.5789 31.2263 54.4278 29.8467H54.4284ZM3.74155 51.6737H11.0842L19.5457 61.8239L19.5451 61.8233C19.7109 62.0305 19.962 62.1512 20.2277 62.1512H27.9251C28.0421 62.1749 28.1627 62.1749 28.2798 62.1512H58.8775L67.3933 65.3707V68.1264C67.3921 68.1538 67.3921 68.1813 67.3933 68.2087V68.2629H35.2667V68.2623C35.1692 68.2361 35.0674 68.227 34.9663 68.2355C34.9388 68.2434 34.9114 68.252 34.8846 68.2623H17.1699L3.7405 51.6725L3.74155 51.6737ZM16.297 55.1663H27.2151V60.4047H20.664L16.297 55.1663Z" fill="#64923E" stroke="#64923E" stroke-width="0.7"/>
</svg>
