<svg width="29" height="29" viewBox="0 0 29 29" fill="none" xmlns="http://www.w3.org/2000/svg">
<path d="M14.5 7.9375C13.2021 7.9375 11.9333 8.32238 10.8541 9.04348C9.77487 9.76458 8.93374 10.7895 8.43704 11.9886C7.94034 13.1878 7.81038 14.5073 8.0636 15.7803C8.31681 17.0533 8.94183 18.2226 9.85961 19.1404C10.7774 20.0582 11.9467 20.6832 13.2197 20.9364C14.4927 21.1896 15.8122 21.0597 17.0114 20.563C18.2105 20.0663 19.2354 19.2251 19.9565 18.1459C20.6776 17.0667 21.0625 15.7979 21.0625 14.5C21.0625 12.7595 20.3711 11.0903 19.1404 9.85961C17.9097 8.6289 16.2405 7.9375 14.5 7.9375ZM14.5 18.875C13.6347 18.875 12.7888 18.6184 12.0694 18.1377C11.3499 17.6569 10.7892 16.9737 10.458 16.1742C10.1269 15.3748 10.0403 14.4951 10.2091 13.6465C10.3779 12.7978 10.7946 12.0183 11.4064 11.4064C12.0183 10.7946 12.7978 10.3779 13.6465 10.2091C14.4951 10.0403 15.3748 10.1269 16.1742 10.458C16.9737 10.7892 17.6569 11.3499 18.1377 12.0694C18.6184 12.7888 18.875 13.6347 18.875 14.5C18.8714 15.6592 18.4093 16.7699 17.5896 17.5896C16.7699 18.4093 15.6592 18.8714 14.5 18.875ZM20.5156 0.828125H8.48438C6.45381 0.828125 4.50641 1.63476 3.07059 3.07059C1.63476 4.50641 0.828125 6.45381 0.828125 8.48438V20.5156C0.828125 22.5462 1.63476 24.4936 3.07059 25.9294C4.50641 27.3652 6.45381 28.1719 8.48438 28.1719H20.5156C22.5462 28.1719 24.4936 27.3652 25.9294 25.9294C27.3652 24.4936 28.1719 22.5462 28.1719 20.5156V8.48438C28.1719 6.45381 27.3652 4.50641 25.9294 3.07059C24.4936 1.63476 22.5462 0.828125 20.5156 0.828125ZM25.9844 20.5156C25.9844 21.2338 25.8429 21.9449 25.5681 22.6084C25.2933 23.2719 24.8904 23.8748 24.3826 24.3826C23.8748 24.8904 23.2719 25.2933 22.6084 25.5681C21.9449 25.8429 21.2338 25.9844 20.5156 25.9844H8.48438C7.76621 25.9844 7.05507 25.8429 6.39158 25.5681C5.72808 25.2933 5.12521 24.8904 4.61738 24.3826C4.10956 23.8748 3.70674 23.2719 3.43191 22.6084C3.15708 21.9449 3.01562 21.2338 3.01562 20.5156V8.48438C3.01562 7.03397 3.5918 5.64297 4.61738 4.61738C5.64297 3.5918 7.03397 3.01562 8.48438 3.01562H20.5156C21.2338 3.01562 21.9449 3.15708 22.6084 3.43191C23.2719 3.70674 23.8748 4.10956 24.3826 4.61738C24.8904 5.12521 25.2933 5.72808 25.5681 6.39158C25.8429 7.05507 25.9844 7.76621 25.9844 8.48438V20.5156ZM23.25 7.39062C23.25 7.71511 23.1538 8.03231 22.9735 8.30211C22.7932 8.57191 22.537 8.78219 22.2372 8.90637C21.9374 9.03054 21.6076 9.06303 21.2893 8.99973C20.9711 8.93642 20.6787 8.78017 20.4493 8.55072C20.2198 8.32128 20.0636 8.02895 20.0003 7.7107C19.937 7.39245 19.9695 7.06257 20.0936 6.76278C20.2178 6.463 20.4281 6.20677 20.6979 6.02649C20.9677 5.84622 21.2849 5.75 21.6094 5.75C22.0445 5.75 22.4618 5.92285 22.7695 6.23053C23.0771 6.5382 23.25 6.9555 23.25 7.39062Z" fill="white"/>
</svg>
