<svg width="67" height="71" viewBox="0 0 67 71" fill="none" xmlns="http://www.w3.org/2000/svg">
<path d="M55.3573 0C61.5704 0 66.7393 4.87873 66.7393 11.3603C66.7393 12.9426 66.3862 14.9975 65.8518 16.4411C62.8055 22.989 59.7289 29.5495 56.6663 36.0993C56.4394 36.5856 55.9164 36.9204 55.3796 36.9204H39.7596C36.1948 36.9204 33.3698 39.7458 33.3698 43.3102C33.3698 46.875 36.1953 49.6999 39.7596 49.6999H43.3096C49.1854 49.6999 53.9596 54.4742 53.9596 60.35C53.9596 66.2257 49.1854 71 43.3096 71H12.7795C12.2427 71 11.7197 70.6657 11.4929 70.1789C8.03646 62.804 4.42407 55.4818 0.99844 48.1029C0.415021 46.5508 0 44.3518 0 42.6006C0 35.3897 5.78905 29.8206 12.8029 29.8206C19.8167 29.8206 25.5601 35.3937 25.5601 42.6006C25.5601 44.3533 25.1406 46.5548 24.5616 48.1029C21.3979 54.7854 18.2025 61.475 15.021 68.1604H43.3095C47.6608 68.1604 51.1198 64.7021 51.1198 60.3502C51.1198 55.9989 47.6614 52.5399 43.3095 52.5399H39.7595C34.6707 52.5399 30.5293 48.3985 30.5293 43.3097C30.5293 38.2209 34.6707 34.0796 39.7595 34.0796H53.1379C50.4016 28.1965 47.595 22.3335 44.9062 16.4411C44.3763 15.0015 44.0187 12.9441 44.0187 11.3603C44.0187 4.88329 49.1432 0 55.3567 0L55.3573 0ZM55.3573 2.83975C50.5904 2.83975 46.8597 6.34475 46.8597 11.3596C46.8597 12.4096 47.2465 14.5521 47.57 15.442C50.1571 21.0063 52.7741 26.5675 55.3802 32.1271C57.9243 26.5401 60.5582 21.1373 63.1905 15.442C63.5144 14.555 63.9007 12.4121 63.9007 11.3596C63.9007 6.34868 60.1254 2.83975 55.3585 2.83975H55.3573ZM55.3791 6.38976C58.107 6.38976 60.349 8.63185 60.349 11.3596C60.349 14.0875 58.1069 16.3295 55.3791 16.3295C52.6513 16.3295 50.4092 14.0875 50.4092 11.3596C50.4092 8.63185 52.6513 6.38976 55.3791 6.38976ZM55.3791 9.22952C54.186 9.22952 53.249 10.1665 53.249 11.3596C53.249 12.5528 54.186 13.4898 55.3791 13.4898C56.5722 13.4898 57.5093 12.5528 57.5093 11.3596C57.5093 10.1665 56.5722 9.22952 55.3791 9.22952ZM12.8018 32.6596C7.26584 32.6596 2.83974 36.8822 2.83974 42.5993C2.83974 43.8122 3.26418 46.0151 3.66088 47.0815C6.68448 53.4738 9.73774 59.8641 12.7801 66.2515C15.7596 59.835 18.9451 53.3663 21.8993 47.0815C22.295 46.0127 22.7205 43.8103 22.7205 42.5993C22.7205 36.8776 18.3385 32.6596 12.8024 32.6596H12.8018ZM12.78 36.2096C16.2924 36.2096 19.1698 39.0875 19.1698 42.5993C19.1698 46.1117 16.2919 48.9891 12.78 48.9891C9.26768 48.9891 6.39027 46.1112 6.39027 42.5993C6.39027 39.087 9.26819 36.2096 12.78 36.2096ZM12.78 39.0493C10.8024 39.0493 9.23003 40.6217 9.23003 42.5993C9.23003 44.577 10.8024 46.1494 12.78 46.1494C14.7576 46.1494 16.33 44.577 16.33 42.5993C16.33 40.6217 14.7576 39.0493 12.78 39.0493Z" fill="#64923E"/>
</svg>
