<svg width="78" height="77" viewBox="0 0 78 77" fill="none" xmlns="http://www.w3.org/2000/svg">
<path d="M11.7691 64.8479C15.2751 64.8479 18.5583 63.4102 20.9533 60.8892C23.3475 63.4102 26.6315 64.8479 30.1375 64.8479C33.6435 64.8479 36.9266 63.4102 39.3216 60.8892C41.7158 63.4102 44.9998 64.8479 48.5058 64.8479C52.0118 64.8479 55.2949 63.4102 57.69 60.8892C60.0842 63.4102 63.3681 64.8479 66.8741 64.8479C70.7493 64.8479 74.365 63.1054 76.7942 60.0672C77.1188 59.6605 77.0524 59.0685 76.6463 58.7433C76.2396 58.4187 75.6477 58.4837 75.3224 58.8911C73.2534 61.4799 70.1746 62.9641 66.8741 62.9641C63.5737 62.9641 60.4949 61.4792 58.4258 58.8911C58.4029 58.8629 58.3707 58.8491 58.3457 58.8241C58.3207 58.7985 58.3069 58.7663 58.278 58.7433C58.255 58.7249 58.2268 58.7203 58.2025 58.7045C58.1486 58.669 58.0947 58.6421 58.0356 58.6191C57.9791 58.5961 57.9245 58.5771 57.8654 58.5659C57.8076 58.5547 57.7511 58.5521 57.6919 58.5514C57.6295 58.5514 57.5704 58.5541 57.5093 58.5665C57.4528 58.5777 57.4009 58.5961 57.347 58.6171C57.2866 58.6408 57.2301 58.6684 57.1749 58.7052C57.1512 58.7209 57.1236 58.7249 57.1013 58.7426C57.073 58.7656 57.0592 58.7978 57.0343 58.8228C57.0086 58.8478 56.9764 58.8616 56.9534 58.8905C54.8844 61.4793 51.8056 62.9635 48.5052 62.9635C45.2049 62.9635 42.1259 61.4786 40.0569 58.8905C40.0339 58.8622 40.0017 58.8484 39.9767 58.8234C39.9518 58.7978 39.938 58.7656 39.9091 58.7426C39.8861 58.7242 39.8578 58.7196 39.8342 58.7039C39.7803 58.6684 39.7257 58.6414 39.6666 58.6178C39.6101 58.5954 39.5556 58.5764 39.4971 58.5652C39.4386 58.5541 39.3828 58.5514 39.3237 58.5508C39.2612 58.5508 39.2014 58.5534 39.1403 58.5659C39.0845 58.5771 39.0326 58.5948 38.9794 58.6165C38.9183 58.6408 38.8618 58.6684 38.8059 58.7052C38.7823 58.7203 38.7553 58.7249 38.733 58.7426C38.7047 58.765 38.6909 58.7972 38.666 58.8228C38.6403 58.8484 38.6082 58.8615 38.5852 58.8905C36.5161 61.4793 33.4373 62.9635 30.1369 62.9635C26.8366 62.9635 23.7576 61.4786 21.6886 58.8905C21.6656 58.8622 21.6334 58.8484 21.6084 58.8234C21.5835 58.7978 21.5697 58.7656 21.5408 58.7426C21.5178 58.7242 21.4895 58.7203 21.4659 58.7039C21.412 58.6684 21.3574 58.6414 21.2983 58.6178C21.2418 58.5954 21.1873 58.5757 21.1288 58.5646C21.071 58.5534 21.0145 58.5508 20.9553 58.5501C20.8929 58.5501 20.8338 58.5527 20.7727 58.5652C20.7168 58.5764 20.6643 58.5948 20.6104 58.6158C20.55 58.6395 20.4935 58.6671 20.4383 58.7039C20.4146 58.7196 20.387 58.7236 20.3647 58.7413C20.3364 58.7643 20.3226 58.7965 20.2977 58.8215C20.272 58.8464 20.2398 58.8602 20.2168 58.8891C18.1478 61.4779 15.069 62.9622 11.7686 62.9622C8.46827 62.9622 5.38934 61.4772 3.32028 58.8891C2.99439 58.4831 2.40306 58.4174 1.99635 58.7413C1.59029 59.0665 1.52394 59.6592 1.84852 60.0652C4.27819 63.1053 7.89386 64.8479 11.7691 64.8479L11.7691 64.8479Z" fill="#64923E" stroke="#64923E"/>
<path d="M1.8499 71.5742C4.2784 74.6123 7.89407 76.3549 11.7693 76.3549C15.2753 76.3549 18.5584 74.9173 20.9534 72.3962C23.3476 74.9172 26.6316 76.3549 30.1369 76.3549C33.6429 76.3549 36.9261 74.9173 39.3211 72.3962C41.7153 74.9172 44.9993 76.3549 48.5053 76.3549C52.0113 76.3549 55.2944 74.9173 57.6894 72.3962C60.0829 74.9172 63.3669 76.3549 66.8729 76.3549C70.7481 76.3549 74.3638 74.6125 76.793 71.5742C77.1175 71.1675 77.0512 70.5755 76.6451 70.2503C76.2384 69.9257 75.6464 69.9908 75.3212 70.3981C73.2522 72.9863 70.1727 74.4711 66.8729 74.4711C63.5726 74.4711 60.4937 72.9862 58.4246 70.3981C58.4016 70.3699 58.3694 70.3561 58.3445 70.3311C58.3195 70.3061 58.3057 70.2733 58.2775 70.251C58.2545 70.2326 58.2269 70.2286 58.2032 70.2128C58.1487 70.1767 58.0935 70.1498 58.0337 70.1261C57.9779 70.1038 57.9246 70.0854 57.8668 70.0742C57.8077 70.063 57.7505 70.0598 57.6901 70.0598C57.6283 70.0598 57.5698 70.0624 57.5094 70.0742C57.4529 70.0854 57.4003 70.1038 57.3458 70.1255C57.2853 70.1491 57.2295 70.1767 57.1743 70.2135C57.1506 70.228 57.1231 70.2326 57.1007 70.2503C57.0725 70.2733 57.0587 70.3055 57.0337 70.3305C57.0081 70.3554 56.9759 70.3692 56.9529 70.3981C54.8845 72.9863 51.8051 74.4711 48.5053 74.4711C45.205 74.4711 42.126 72.9862 40.057 70.3981C40.034 70.3699 40.0018 70.3561 39.9768 70.3311C39.9519 70.3061 39.9381 70.2733 39.9098 70.251C39.8868 70.2332 39.8592 70.2286 39.8356 70.2128C39.781 70.1767 39.7252 70.1491 39.6654 70.1255C39.6102 70.1031 39.557 70.0847 39.4998 70.0736C39.4407 70.0624 39.3835 70.0591 39.3231 70.0591C39.2613 70.0591 39.2028 70.0617 39.1424 70.0742C39.0865 70.0854 39.034 70.1038 38.9801 70.1248C38.919 70.1491 38.8631 70.1767 38.8073 70.2135C38.7837 70.2293 38.7567 70.2332 38.7344 70.251C38.7061 70.2733 38.6923 70.3055 38.6674 70.3311C38.6417 70.3567 38.6095 70.3699 38.5865 70.3988C36.5161 72.9862 33.4374 74.4711 30.1371 74.4711C26.8368 74.4711 23.7579 72.9862 21.6888 70.3981C21.6658 70.3699 21.6336 70.3561 21.608 70.3304C21.583 70.3055 21.5692 70.2733 21.541 70.2503C21.5186 70.2325 21.491 70.2279 21.4667 70.2122C21.4122 70.176 21.3563 70.1484 21.2966 70.1248C21.2414 70.1025 21.1881 70.0841 21.1303 70.0729C21.0712 70.0617 21.014 70.0584 20.9536 70.0584C20.8918 70.0584 20.8333 70.0617 20.7729 70.0735C20.7164 70.0847 20.6638 70.1031 20.6093 70.1248C20.5488 70.1484 20.493 70.176 20.4378 70.2128C20.4155 70.2279 20.3879 70.2325 20.3655 70.2503C20.3373 70.2733 20.3235 70.3055 20.2985 70.3304C20.2729 70.3554 20.2407 70.3692 20.2177 70.3981C18.1486 72.9862 15.0699 74.4711 11.7694 74.4711C8.46913 74.4711 5.39019 72.9862 3.32114 70.3981C2.99525 69.9914 2.40392 69.9264 1.9972 70.2503C1.59115 70.5755 1.52479 71.1675 1.85003 71.5742L1.8499 71.5742Z" fill="#64923E" stroke="#64923E"/>
<path d="M76.0554 50.4599H35.0898V38.4735C41.5879 37.9886 46.7299 32.5589 46.7299 25.9391C46.7299 19.0008 41.0858 13.3567 34.1475 13.3567C31.2191 13.3567 28.5286 14.3706 26.3878 16.0545C24.9502 10.5649 20.0217 6.69763 14.2253 6.69763C7.28767 6.69763 1.64365 12.3423 1.64365 19.2807C1.64365 25.9009 6.78559 31.3301 13.2837 31.8151V50.4603H2.58576C2.06537 50.4603 1.64355 50.8821 1.64355 51.4025C1.64355 51.9228 2.06537 52.3447 2.58576 52.3447H76.0564C76.5768 52.3447 76.9986 51.9228 76.9986 51.4025C76.9979 50.8821 76.5761 50.4603 76.0557 50.4603L76.0554 50.4599ZM44.8455 25.9394C44.8455 31.5204 40.5478 36.1111 35.0891 36.59V31.8837L40.3809 26.5919C40.7489 26.2239 40.7489 25.628 40.3809 25.2601C40.013 24.8921 39.417 24.8921 39.0491 25.2601L35.0891 29.22V22.425C35.0891 21.9046 34.6673 21.4828 34.1469 21.4828C33.6265 21.4828 33.2047 21.9046 33.2047 22.425V29.22L29.2454 25.2601C28.8775 24.8921 28.2815 24.8921 27.9136 25.2601C27.5456 25.628 27.5456 26.2239 27.9136 26.5919L33.2054 31.8837V36.59C27.7467 36.111 23.449 31.5202 23.449 25.9394C23.449 20.0406 28.248 15.2409 34.1475 15.2409C40.0463 15.2409 44.8455 20.0406 44.8455 25.9394H44.8455ZM3.52668 19.281C3.52668 13.3815 8.32565 8.5825 14.2252 8.5825C19.5077 8.5825 23.9454 12.3578 24.7857 17.5623C22.7903 19.7896 21.5643 22.7207 21.5643 25.9403C21.5643 26.2984 21.5886 26.6512 21.6182 27.0021C19.8455 28.7012 17.5918 29.7236 15.1668 29.9338L15.1675 25.2248L20.4593 19.933C20.8272 19.5651 20.8272 18.9691 20.4593 18.6012C20.0913 18.2333 19.4954 18.2333 19.1274 18.6012L15.1675 22.5605V15.7655C15.1675 15.2451 14.7457 14.8233 14.2253 14.8233C13.7049 14.8233 13.2831 15.2451 13.2831 15.7655V22.5605L9.32376 18.6012C8.95582 18.2333 8.35988 18.2333 7.99194 18.6012C7.62399 18.9691 7.62399 19.5651 7.99194 19.933L13.2837 25.2248V29.9311C7.82441 29.4521 3.52668 24.862 3.52668 19.2812L3.52668 19.281ZM15.1674 31.8173C17.676 31.6326 20.0354 30.7154 21.9993 29.1642C23.3508 34.2484 27.8029 38.071 33.2051 38.4745V50.4609L15.1671 50.4603L15.1674 31.8173Z" fill="#64923E" stroke="#64923E"/>
<path d="M70.058 15.7666C70.058 11.8237 66.8504 8.61597 62.9074 8.61597C58.9646 8.61597 55.7568 11.8236 55.7568 15.7666C55.7568 19.7094 58.9644 22.9172 62.9074 22.9172C66.8509 22.9172 70.058 19.7096 70.058 15.7666ZM62.9074 21.0333C60.0033 21.0333 57.6407 18.6706 57.6407 15.7666C57.6407 12.8624 60.0034 10.4998 62.9074 10.4998C65.8114 10.4998 68.1742 12.8626 68.1742 15.7666C68.1742 18.6707 65.8114 21.0333 62.9074 21.0333Z" fill="#64923E" stroke="#64923E"/>
<path d="M63.8492 5.12492V1.9422C63.8492 1.42182 63.4274 1 62.907 1C62.3867 1 61.9648 1.42182 61.9648 1.9422V5.12492C61.9648 5.6453 62.3867 6.06712 62.907 6.06712C63.4274 6.06646 63.8492 5.64465 63.8492 5.12492Z" fill="#64923E" stroke="#64923E"/>
<path d="M55.8911 7.711C56.0758 7.96462 56.3629 8.09931 56.654 8.09931C56.8458 8.09931 57.0396 8.04084 57.2065 7.91929C57.627 7.61377 57.721 7.0244 57.4148 6.60324L55.5442 4.02824C55.2387 3.60904 54.6507 3.51377 54.2282 3.81995C53.8077 4.12547 53.7137 4.71484 54.0199 5.136L55.8911 7.711Z" fill="#64923E" stroke="#64923E"/>
<path d="M53.0778 11.5817L50.0508 10.5981C49.5541 10.4378 49.0245 10.7091 48.8635 11.2026C48.7032 11.6973 48.9739 12.2289 49.468 12.3899L52.495 13.3734C52.5922 13.405 52.6901 13.4201 52.7861 13.4201C53.1836 13.4201 53.5528 13.1665 53.6823 12.769C53.8432 12.2736 53.5725 11.7427 53.0778 11.5817V11.5817Z" fill="#64923E" stroke="#64923E"/>
<path d="M52.4962 18.16L49.4692 19.1436C48.9752 19.3046 48.7038 19.8362 48.8648 20.3309C48.9942 20.7291 49.3634 20.982 49.761 20.982C49.8569 20.982 49.9554 20.9669 50.052 20.9354L53.079 19.9518C53.5731 19.7908 53.8445 19.2593 53.6835 18.7645C53.5225 18.2704 52.9923 18.0004 52.4962 18.16V18.16Z" fill="#64923E" stroke="#64923E"/>
<path d="M54.2285 27.7123C54.3961 27.8339 54.5899 27.8924 54.7811 27.8924C55.0728 27.8924 55.3599 27.7577 55.5439 27.5041L57.4145 24.9291C57.72 24.5086 57.6267 23.9192 57.2062 23.613C56.785 23.3075 56.197 23.4008 55.8902 23.8213L54.0196 26.3963C53.7141 26.8175 53.8074 27.4068 54.2285 27.7123H54.2285Z" fill="#64923E" stroke="#64923E"/>
<path d="M61.9658 26.4088V29.5915C61.9658 30.1119 62.3876 30.5337 62.908 30.5337C63.4284 30.5337 63.8502 30.1119 63.8502 29.5915V26.4088C63.8502 25.8884 63.4284 25.4666 62.908 25.4666C62.3876 25.4666 61.9658 25.8884 61.9658 26.4088Z" fill="#64923E" stroke="#64923E"/>
<path d="M70.2717 27.5037C70.4563 27.7574 70.7434 27.892 71.0345 27.892C71.2264 27.892 71.4202 27.8336 71.5871 27.712C72.0076 27.4065 72.1016 26.8171 71.7954 26.396L69.9241 23.821C69.6186 23.4005 69.0299 23.3065 68.6081 23.6127C68.1876 23.9182 68.0936 24.5076 68.3998 24.9287L70.2717 27.5037Z" fill="#64923E" stroke="#64923E"/>
<path d="M76.3474 19.1424L73.3204 18.1588C72.8243 17.9991 72.2941 18.2698 72.1331 18.7632C71.9728 19.258 72.2429 19.7895 72.7376 19.9505L75.7646 20.9341C75.8618 20.9657 75.9604 20.9808 76.0563 20.9808C76.4538 20.9808 76.8231 20.7271 76.9525 20.3296C77.1128 19.8349 76.8428 19.3033 76.3474 19.1424V19.1424Z" fill="#64923E" stroke="#64923E"/>
<path d="M76.9521 11.2033C76.7918 10.7092 76.2629 10.4385 75.7648 10.5988L72.7379 11.5824C72.2431 11.7433 71.9724 12.2749 72.1334 12.7696C72.2628 13.1678 72.6321 13.4208 73.0296 13.4208C73.1255 13.4208 73.224 13.4056 73.3206 13.3741L76.3476 12.3905C76.8424 12.2295 77.1124 11.6986 76.9521 11.2032V11.2033Z" fill="#64923E" stroke="#64923E"/>
<path d="M71.5888 3.82016C71.1676 3.51463 70.5782 3.60925 70.2727 4.02844L68.4015 6.60345C68.0959 7.02395 68.1892 7.61331 68.6097 7.91949C68.7773 8.04104 68.9711 8.09952 69.1623 8.09952C69.4541 8.09952 69.7412 7.96483 69.9252 7.71121L71.7964 5.1362C72.1032 4.7157 72.0093 4.12633 71.5888 3.82016H71.5888Z" fill="#64923E" stroke="#64923E"/>
</svg>
