<svg width="72" height="75" viewBox="0 0 72 75" fill="none" xmlns="http://www.w3.org/2000/svg">
<mask id="path-1-inside-1_190_135" fill="white">
<path d="M6.69633 3.06934e-06C5.79828 0.0416189 5.01984 0.891767 5.06162 1.78417C5.10407 2.67712 5.95908 3.45115 6.85705 3.40899H65.1433C66.0491 3.42147 66.8819 2.60522 66.8819 1.70457C66.8819 0.80392 66.049 -0.0129335 65.1433 0.000155179H6.69633V3.06934e-06ZM6.69633 8.52285C5.85329 8.60133 5.13877 9.38548 5.14244 10.2273V57.9552C5.14244 58.8476 5.95917 59.6596 6.85659 59.6596H20.5713C21.5154 59.6626 22.3591 58.7578 22.2854 57.822C22.0929 55.1343 21.6887 52.2563 20.759 49.4318H51.2414C50.3117 52.2563 49.9075 55.1343 49.715 57.8214C49.6408 58.7572 50.485 59.6621 51.4291 59.6596H65.1438C66.0413 59.6596 66.858 58.8475 66.858 57.9552V10.2273C66.858 9.33491 66.0412 8.52285 65.1438 8.52285H6.69688H6.69633ZM8.57135 11.9317H63.429V34.8642C54.5968 34.5355 45.7043 27.6796 42.3752 16.6193C42.0416 15.5277 40.4434 15.0848 39.5896 15.847C38.8781 16.4998 37.5531 17.0455 36.0005 17.0455C34.4478 17.0455 33.1227 16.4998 32.4113 15.847C31.5575 15.0848 29.9592 15.5277 29.6257 16.6193C26.2972 27.6789 17.404 34.534 8.57196 34.8642L8.57135 11.9317ZM32.143 19.5759C33.3071 20.1032 34.5813 20.4546 36 20.4546C37.4187 20.4546 38.693 20.1032 39.857 19.5759C43.6645 29.8068 51.888 36.7282 60.9108 38.0598C56.9873 40.1132 54.3118 42.908 52.661 46.0232H19.3393C17.6879 42.908 15.0122 40.1132 11.0889 38.0598C20.1112 36.7276 28.336 29.8064 32.1427 19.5759H32.143ZM8.57135 40.6167C12.4744 42.3925 14.8529 44.8294 16.3393 47.6479C17.7264 50.278 18.289 53.269 18.6161 56.2503H8.57135V40.6167ZM63.429 40.6167V56.25H53.3842C53.7113 53.268 54.2739 50.277 55.661 47.6476C57.1474 44.829 59.5259 42.3916 63.429 40.6164V40.6167ZM7.7142 63.0683C5.72377 63.0683 3.8858 63.6034 2.464 64.6128C1.04278 65.6228 0 67.2132 0 69.0342V73.2956C0 74.1879 0.816726 75 1.71415 75H13.7139C14.6114 75 15.4281 74.1879 15.4281 73.2956V69.0342C15.4287 67.2132 14.3859 65.6229 12.9641 64.6128C11.5423 63.6033 9.70493 63.0683 7.71389 63.0683H7.7142ZM26.5715 63.0683C24.5811 63.0683 22.7431 63.6034 21.3213 64.6128C19.9001 65.6228 18.8573 67.2132 18.8573 69.0342V73.2956C18.8573 74.1879 19.674 75 20.5714 75H32.5712C33.4687 75 34.2854 74.1879 34.2854 73.2956V69.0342C34.286 67.2132 33.2433 65.6229 31.8214 64.6128C30.4002 63.6033 28.5622 63.0683 26.5712 63.0683H26.5715ZM45.4288 63.0683C43.4384 63.0683 41.6004 63.6034 40.1786 64.6128C38.7574 65.6228 37.7146 67.2132 37.7146 69.0342V73.2956C37.7146 74.1879 38.5313 75 39.4288 75H51.4285C52.326 75 53.1427 74.1879 53.1427 73.2956V69.0342C53.1433 67.2132 52.1006 65.6229 50.6787 64.6128C49.2575 63.6033 47.4195 63.0683 45.4291 63.0683H45.4288ZM64.2861 63.0683C62.2957 63.0683 60.4577 63.6034 59.0359 64.6128C57.6147 65.6228 56.5719 67.2132 56.5719 69.0342V73.2956C56.5719 74.1879 57.3886 75 58.2861 75H70.2858C71.1833 75 72 74.1879 72 73.2956V69.0342C72.0006 67.2132 70.9579 65.6229 69.5366 64.6128C68.1148 63.6033 66.2768 63.0683 64.2864 63.0683H64.2861ZM7.7142 66.4771C9.04751 66.4771 10.208 66.8517 10.9555 67.3826C11.7034 67.9141 12.0006 68.4943 12.0006 69.0342V71.5912H3.42907V69.0342C3.42907 68.4944 3.72623 67.9135 4.4736 67.3826C5.22158 66.8523 6.38153 66.4771 7.71486 66.4771H7.7142ZM26.5715 66.4771C27.9048 66.4771 29.0653 66.8517 29.8128 67.3826C30.5607 67.9141 30.8579 68.4943 30.8579 69.0342V71.5912H22.2864V69.0342C22.2864 68.4944 22.5835 67.9135 23.3309 67.3826C24.0789 66.8523 25.2388 66.4771 26.5722 66.4771H26.5715ZM45.4288 66.4771C46.7621 66.4771 47.9227 66.8517 48.6701 67.3826C49.4186 67.9141 49.7158 68.4943 49.7158 69.0342V71.5912H41.1443V69.0342C41.1443 68.4944 41.4414 67.9135 42.1888 67.3826C42.9362 66.8523 44.0961 66.4771 45.4301 66.4771H45.4288ZM64.2861 66.4771C65.6194 66.4771 66.78 66.8517 67.5274 67.3826C68.2759 67.9141 68.5731 68.4943 68.5731 69.0342V71.5912H60.0016V69.0342C60.0016 68.4944 60.2987 67.9135 61.0461 67.3826C61.7935 66.8523 62.954 66.4771 64.2874 66.4771H64.2861Z"/>
</mask>
<path d="M6.69633 3.06934e-06C5.79828 0.0416189 5.01984 0.891767 5.06162 1.78417C5.10407 2.67712 5.95908 3.45115 6.85705 3.40899H65.1433C66.0491 3.42147 66.8819 2.60522 66.8819 1.70457C66.8819 0.80392 66.049 -0.0129335 65.1433 0.000155179H6.69633V3.06934e-06ZM6.69633 8.52285C5.85329 8.60133 5.13877 9.38548 5.14244 10.2273V57.9552C5.14244 58.8476 5.95917 59.6596 6.85659 59.6596H20.5713C21.5154 59.6626 22.3591 58.7578 22.2854 57.822C22.0929 55.1343 21.6887 52.2563 20.759 49.4318H51.2414C50.3117 52.2563 49.9075 55.1343 49.715 57.8214C49.6408 58.7572 50.485 59.6621 51.4291 59.6596H65.1438C66.0413 59.6596 66.858 58.8475 66.858 57.9552V10.2273C66.858 9.33491 66.0412 8.52285 65.1438 8.52285H6.69688H6.69633ZM8.57135 11.9317H63.429V34.8642C54.5968 34.5355 45.7043 27.6796 42.3752 16.6193C42.0416 15.5277 40.4434 15.0848 39.5896 15.847C38.8781 16.4998 37.5531 17.0455 36.0005 17.0455C34.4478 17.0455 33.1227 16.4998 32.4113 15.847C31.5575 15.0848 29.9592 15.5277 29.6257 16.6193C26.2972 27.6789 17.404 34.534 8.57196 34.8642L8.57135 11.9317ZM32.143 19.5759C33.3071 20.1032 34.5813 20.4546 36 20.4546C37.4187 20.4546 38.693 20.1032 39.857 19.5759C43.6645 29.8068 51.888 36.7282 60.9108 38.0598C56.9873 40.1132 54.3118 42.908 52.661 46.0232H19.3393C17.6879 42.908 15.0122 40.1132 11.0889 38.0598C20.1112 36.7276 28.336 29.8064 32.1427 19.5759H32.143ZM8.57135 40.6167C12.4744 42.3925 14.8529 44.8294 16.3393 47.6479C17.7264 50.278 18.289 53.269 18.6161 56.2503H8.57135V40.6167ZM63.429 40.6167V56.25H53.3842C53.7113 53.268 54.2739 50.277 55.661 47.6476C57.1474 44.829 59.5259 42.3916 63.429 40.6164V40.6167ZM7.7142 63.0683C5.72377 63.0683 3.8858 63.6034 2.464 64.6128C1.04278 65.6228 0 67.2132 0 69.0342V73.2956C0 74.1879 0.816726 75 1.71415 75H13.7139C14.6114 75 15.4281 74.1879 15.4281 73.2956V69.0342C15.4287 67.2132 14.3859 65.6229 12.9641 64.6128C11.5423 63.6033 9.70493 63.0683 7.71389 63.0683H7.7142ZM26.5715 63.0683C24.5811 63.0683 22.7431 63.6034 21.3213 64.6128C19.9001 65.6228 18.8573 67.2132 18.8573 69.0342V73.2956C18.8573 74.1879 19.674 75 20.5714 75H32.5712C33.4687 75 34.2854 74.1879 34.2854 73.2956V69.0342C34.286 67.2132 33.2433 65.6229 31.8214 64.6128C30.4002 63.6033 28.5622 63.0683 26.5712 63.0683H26.5715ZM45.4288 63.0683C43.4384 63.0683 41.6004 63.6034 40.1786 64.6128C38.7574 65.6228 37.7146 67.2132 37.7146 69.0342V73.2956C37.7146 74.1879 38.5313 75 39.4288 75H51.4285C52.326 75 53.1427 74.1879 53.1427 73.2956V69.0342C53.1433 67.2132 52.1006 65.6229 50.6787 64.6128C49.2575 63.6033 47.4195 63.0683 45.4291 63.0683H45.4288ZM64.2861 63.0683C62.2957 63.0683 60.4577 63.6034 59.0359 64.6128C57.6147 65.6228 56.5719 67.2132 56.5719 69.0342V73.2956C56.5719 74.1879 57.3886 75 58.2861 75H70.2858C71.1833 75 72 74.1879 72 73.2956V69.0342C72.0006 67.2132 70.9579 65.6229 69.5366 64.6128C68.1148 63.6033 66.2768 63.0683 64.2864 63.0683H64.2861ZM7.7142 66.4771C9.04751 66.4771 10.208 66.8517 10.9555 67.3826C11.7034 67.9141 12.0006 68.4943 12.0006 69.0342V71.5912H3.42907V69.0342C3.42907 68.4944 3.72623 67.9135 4.4736 67.3826C5.22158 66.8523 6.38153 66.4771 7.71486 66.4771H7.7142ZM26.5715 66.4771C27.9048 66.4771 29.0653 66.8517 29.8128 67.3826C30.5607 67.9141 30.8579 68.4943 30.8579 69.0342V71.5912H22.2864V69.0342C22.2864 68.4944 22.5835 67.9135 23.3309 67.3826C24.0789 66.8523 25.2388 66.4771 26.5722 66.4771H26.5715ZM45.4288 66.4771C46.7621 66.4771 47.9227 66.8517 48.6701 67.3826C49.4186 67.9141 49.7158 68.4943 49.7158 69.0342V71.5912H41.1443V69.0342C41.1443 68.4944 41.4414 67.9135 42.1888 67.3826C42.9362 66.8523 44.0961 66.4771 45.4301 66.4771H45.4288ZM64.2861 66.4771C65.6194 66.4771 66.78 66.8517 67.5274 67.3826C68.2759 67.9141 68.5731 68.4943 68.5731 69.0342V71.5912H60.0016V69.0342C60.0016 68.4944 60.2987 67.9135 61.0461 67.3826C61.7935 66.8523 62.954 66.4771 64.2874 66.4771H64.2861Z" fill="#64923E" stroke="#F6F6F6" stroke-width="0.4" mask="url(#path-1-inside-1_190_135)"/>
</svg>
