<svg width="117" height="36" viewBox="0 0 117 36" fill="none" xmlns="http://www.w3.org/2000/svg">
<path fill-rule="evenodd" clip-rule="evenodd" d="M4.86117 31.3296C5.28702 31.3296 5.62426 31.4483 5.87374 31.6866C6.12323 31.9206 6.24797 32.2346 6.24797 32.6304C6.24797 33.0442 6.11721 33.3608 5.85654 33.5801C5.59931 33.7987 5.22336 33.9079 4.72868 33.9079H2.24844V35.496H1.55762V31.3296H4.86117ZM4.73987 33.2807C5.27325 33.2807 5.53995 33.0674 5.53995 32.6415C5.53995 32.1847 5.25777 31.9567 4.69427 31.9567H2.24844V33.2807H4.73987Z" fill="white"/>
<path fill-rule="evenodd" clip-rule="evenodd" d="M17.8152 35.496H17.0615L16.5781 34.5643H13.7752L13.2917 35.496H12.5381L14.7422 31.3296H15.6111L17.8152 35.496ZM16.2382 33.9363L15.1792 31.9223L14.115 33.9363H16.2382Z" fill="white"/>
<path fill-rule="evenodd" clip-rule="evenodd" d="M29.4339 35.496H28.5822L25.3939 32.0781V35.496H24.7031V31.3296H25.5608L28.7431 34.7484V31.3296H29.4339V35.496Z" fill="white"/>
<path fill-rule="evenodd" clip-rule="evenodd" d="M42.0425 33.3435C42.0425 34.0232 41.799 34.5712 41.3121 34.9901C40.8286 35.4083 40.1859 35.6173 39.3841 35.6173C38.6511 35.6173 38.0386 35.4306 37.5474 35.059C36.9916 34.6366 36.7129 34.086 36.7129 33.4072C36.7129 32.7396 36.9951 32.1907 37.5594 31.7614C38.0541 31.3846 38.6813 31.1971 39.4409 31.1971C40.358 31.1971 41.1099 31.5326 41.6975 32.2045L41.0522 32.5262C40.6195 32.0625 40.0629 31.8303 39.3841 31.8303C38.8542 31.8303 38.4111 31.961 38.0541 32.2217C37.6394 32.5245 37.433 32.9194 37.433 33.4072C37.433 33.8752 37.611 34.2555 37.9681 34.5462C38.3251 34.8379 38.7965 34.9841 39.3841 34.9841C40.3046 34.9841 40.9034 34.6254 41.1796 33.9079H39.2396V33.2807H42.0425V33.3435Z" fill="white"/>
<path fill-rule="evenodd" clip-rule="evenodd" d="M54.0136 34.1497C54.0136 34.5832 53.8028 34.9342 53.3804 35.2027C52.9511 35.4831 52.3773 35.6225 51.6598 35.6225C50.9423 35.6225 50.3642 35.4831 49.9271 35.2027C49.5056 34.9299 49.2939 34.5789 49.2939 34.1497V31.3296H49.9848V33.9828C49.9848 34.3088 50.1267 34.5583 50.4106 34.7312C50.6988 34.9033 51.1143 34.9902 51.6598 34.9902C52.2043 34.9902 52.6164 34.9033 52.8969 34.7312C53.1808 34.5583 53.3227 34.3088 53.3227 33.9828V31.3296H54.0136V34.1497Z" fill="white"/>
<path d="M62.1732 31.3296H61.4824V35.496H62.1732V31.3296Z" fill="white"/>
<path fill-rule="evenodd" clip-rule="evenodd" d="M72.9746 31.3296C73.4013 31.3296 73.7385 31.4483 73.988 31.6866C74.2375 31.9206 74.3622 32.2346 74.3622 32.6304C74.3622 33.0442 74.2315 33.3608 73.9708 33.5801C73.7136 33.7987 73.3376 33.9079 72.8429 33.9079H70.3618V35.496H69.6719V31.3296H72.9746ZM72.8541 33.2807C73.3875 33.2807 73.6542 33.0674 73.6542 32.6415C73.6542 32.1847 73.372 31.9567 72.8077 31.9567H70.3618V33.2807H72.8541Z" fill="white"/>
<path fill-rule="evenodd" clip-rule="evenodd" d="M85.952 34.1497C85.952 34.5832 85.7413 34.9342 85.3188 35.2027C84.8887 35.4831 84.3157 35.6225 83.5982 35.6225C82.8808 35.6225 82.3026 35.4831 81.8656 35.2027C81.4441 34.9299 81.2324 34.5789 81.2324 34.1497V31.3296H81.9232V33.9828C81.9232 34.3088 82.0652 34.5583 82.3491 34.7312C82.6373 34.9033 83.0528 34.9902 83.5982 34.9902C84.1428 34.9902 84.5549 34.9033 84.8354 34.7312C85.1193 34.5583 85.2612 34.3088 85.2612 33.9828V31.3296H85.952V34.1497Z" fill="white"/>
<path fill-rule="evenodd" clip-rule="evenodd" d="M97.3284 35.496H93.4209V31.3296H94.1117V34.8689H97.3284V35.496Z" fill="white"/>
<path fill-rule="evenodd" clip-rule="evenodd" d="M108.153 35.496H104.245V31.3296H104.936V34.8689H108.153V35.496Z" fill="white"/>
<path d="M115.761 31.3296H115.07V35.496H115.761V31.3296Z" fill="white"/>
<path fill-rule="evenodd" clip-rule="evenodd" d="M59.7317 24.9797H54.4451L42.4981 11.8997L35.0135 17.4271V24.9797H30.8936V0.123901H35.0135V12.9983L52.4191 0.123901H58.3586L45.6563 9.53043L59.7317 24.9797Z" fill="white"/>
<path fill-rule="evenodd" clip-rule="evenodd" d="M87.1946 24.9797H81.9072L69.9602 11.8997L62.4764 17.4271V24.9797H58.3564V0.123901H62.4764V12.9983L79.882 0.123901H85.8215L73.1192 9.53043L87.1946 24.9797Z" fill="white"/>
<path fill-rule="evenodd" clip-rule="evenodd" d="M4.44689 24.8945H0L13.0508 0H18.1799L31.401 24.9797H27.1244L15.5723 3.46013L4.44689 24.8945Z" fill="white"/>
<path fill-rule="evenodd" clip-rule="evenodd" d="M90.0455 24.8945H85.5986L98.6494 0H103.778L117 24.9797H112.723L101.171 3.46013L90.0455 24.8945Z" fill="white"/>
</svg>
